<?xml version="1.0" encoding="UTF-8" standalone="no"?> <svg xmlns="http://www.w3.org/2000/svg" xmlns:xlink="http://www.w3.org/1999/xlink" version="1.1" preserveAspectRatio="xMidYMid meet" viewBox="0 0 354 572" width="354" height="572"><defs><path d="M9.33 4.76L341.09 164.32C341.09 240.52 341.09 288.15 341.09 307.2C341.09 351.88 294.43 381.21 254.17 361.85C205.2 338.3 145.22 309.46 96.25 285.9C43.12 260.35 9.33 206.6 9.33 147.64C9.33 128.59 9.33 80.96 9.33 4.76Z" id="b1x0tbjFiG"></path><radialGradient id="gradientd4masADGnb" gradientUnits="userSpaceOnUse" cx="175.21" cy="4.76" dx="175.21" dy="380" r="375.24"><stop style="stop-color: #ffffff;stop-opacity: 1" offset="0%"></stop><stop style="stop-color: #010000;stop-opacity: 1" offset="100%"></stop></radialGradient><path d="M12.77 564.62C143.35 501.82 224.96 462.57 257.61 446.87C310.74 421.31 344.53 367.57 344.53 308.6C344.53 289.55 344.53 241.93 344.53 165.72C213.95 228.52 132.34 267.77 99.69 283.48C46.56 309.03 12.77 362.78 12.77 421.74C12.77 440.79 12.77 488.42 12.77 564.62Z" id="cykwLE2J"></path><linearGradient id="gradientdgoVV80DP" gradientUnits="userSpaceOnUse" x1="178.65" y1="564.62" x2="178.65" y2="165.72"><stop style="stop-color: #ff0000;stop-opacity: 1" offset="0%"></stop><stop style="stop-color: #010000;stop-opacity: 1" offset="100%"></stop></linearGradient><path d="M328.73 251.49C328.73 266.16 315.91 278.07 300.13 278.07C284.34 278.07 271.52 266.16 271.52 251.49C271.52 236.83 284.34 224.92 300.13 224.92C315.91 224.92 328.73 236.83 328.73 251.49Z" id="c2pCQ8YlK"></path><path d="M329.44 252.22C329.44 266.89 316.62 278.8 300.83 278.8C285.05 278.8 272.23 266.89 272.23 252.22C272.23 237.56 285.05 225.65 300.83 225.65C316.62 225.65 329.44 237.56 329.44 252.22Z" id="cwIxgwqb4"></path><path d="M300.83 268.81C300.83 283.48 288.02 295.39 272.23 295.39C256.44 295.39 243.63 283.48 243.63 268.81C243.63 254.15 256.44 242.24 272.23 242.24C288.02 242.24 300.83 254.15 300.83 268.81Z" id="h8BN9rJqN"></path><path d="M329.44 285.4C329.44 300.07 316.62 311.98 300.83 311.98C285.05 311.98 272.23 300.07 272.23 285.4C272.23 270.73 285.05 258.83 300.83 258.83C316.62 258.83 329.44 270.73 329.44 285.4Z" id="jtpR6BU1d"></path></defs><g><g><g><g><g><filter id="shadow6766916" x="-0.67" y="-5.24" width="353.76" height="384.16"><feFlood></feFlood><feComposite in2="SourceAlpha" operator="in"></feComposite><feGaussianBlur stdDeviation="1"></feGaussianBlur><feOffset dx="2" dy="1" result="afterOffset"></feOffset><feFlood flood-color="#000000" flood-opacity="0.5"></feFlood><feComposite in2="afterOffset" operator="in"></feComposite><feMorphology operator="dilate" radius="1"></feMorphology><feComposite in2="SourceAlpha" operator="out"></feComposite></filter><path d="M9.33 4.76L341.09 164.32C341.09 240.52 341.09 288.15 341.09 307.2C341.09 351.88 294.43 381.21 254.17 361.85C205.2 338.3 145.22 309.46 96.25 285.9C43.12 260.35 9.33 206.6 9.33 147.64C9.33 128.59 9.33 80.96 9.33 4.76Z" id="aOnbTCmHx" fill="white" fill-opacity="1" filter="url(#shadow6766916)"></path></g><use xlink:href="#b1x0tbjFiG" opacity="1" fill="url(#gradientd4masADGnb)"></use><use xlink:href="#b1x0tbjFiG" opacity="1" fill="#04a704" fill-opacity="1"></use></g><g><g><filter id="shadow6908592" x="2.77" y="155.72" width="353.76" height="419.9"><feFlood></feFlood><feComposite in2="SourceAlpha" operator="in"></feComposite><feGaussianBlur stdDeviation="1"></feGaussianBlur><feOffset dx="2" dy="1" result="afterOffset"></feOffset><feFlood flood-color="#000000" flood-opacity="0.5"></feFlood><feComposite in2="afterOffset" operator="in"></feComposite><feMorphology operator="dilate" radius="1"></feMorphology><feComposite in2="SourceAlpha" operator="out"></feComposite></filter><path d="M12.77 564.62C143.35 501.82 224.96 462.57 257.61 446.87C310.74 421.31 344.53 367.57 344.53 308.6C344.53 289.55 344.53 241.93 344.53 165.72C213.95 228.52 132.34 267.77 99.69 283.48C46.56 309.03 12.77 362.78 12.77 421.74C12.77 440.79 12.77 488.42 12.77 564.62Z" id="c61Md0t7f" fill="white" fill-opacity="1" filter="url(#shadow6908592)"></path></g><use xlink:href="#cykwLE2J" opacity="1" fill="url(#gradientdgoVV80DP)"></use></g><g><g><filter id="shadow15836175" x="261.52" y="214.92" width="79.21" height="74.15"><feFlood></feFlood><feComposite in2="SourceAlpha" operator="in"></feComposite><feGaussianBlur stdDeviation="1"></feGaussianBlur><feOffset dx="2" dy="1" result="afterOffset"></feOffset><feFlood flood-color="#000000" flood-opacity="0.5"></feFlood><feComposite in2="afterOffset" operator="in"></feComposite><feMorphology operator="dilate" radius="1"></feMorphology><feComposite in2="SourceAlpha" operator="out"></feComposite></filter><path d="M328.73 251.49C328.73 266.16 315.91 278.07 300.13 278.07C284.34 278.07 271.52 266.16 271.52 251.49C271.52 236.83 284.34 224.92 300.13 224.92C315.91 224.92 328.73 236.83 328.73 251.49Z" id="dfA57KFSW" fill="white" fill-opacity="1" filter="url(#shadow15836175)"></path></g><use xlink:href="#c2pCQ8YlK" opacity="1" fill="#04a704" fill-opacity="1"></use></g></g><g><g><g><filter id="shadow15869039" x="262.23" y="215.65" width="79.21" height="74.15"><feFlood></feFlood><feComposite in2="SourceAlpha" operator="in"></feComposite><feGaussianBlur stdDeviation="1"></feGaussianBlur><feOffset dx="2" dy="1" result="afterOffset"></feOffset><feFlood flood-color="#000000" flood-opacity="0.5"></feFlood><feComposite in2="afterOffset" operator="in"></feComposite><feMorphology operator="dilate" radius="1"></feMorphology><feComposite in2="SourceAlpha" operator="out"></feComposite></filter><path d="M329.44 252.22C329.44 266.89 316.62 278.8 300.83 278.8C285.05 278.8 272.23 266.89 272.23 252.22C272.23 237.56 285.05 225.65 300.83 225.65C316.62 225.65 329.44 237.56 329.44 252.22Z" id="ccEIN2wGA" fill="white" fill-opacity="1" filter="url(#shadow15869039)"></path></g><use xlink:href="#cwIxgwqb4" opacity="1" fill="#04a704" fill-opacity="1"></use></g><g><g><filter id="shadow15675435" x="233.63" y="232.24" width="79.21" height="74.15"><feFlood></feFlood><feComposite in2="SourceAlpha" operator="in"></feComposite><feGaussianBlur stdDeviation="1"></feGaussianBlur><feOffset dx="2" dy="1" result="afterOffset"></feOffset><feFlood flood-color="#000000" flood-opacity="0.5"></feFlood><feComposite in2="afterOffset" operator="in"></feComposite><feMorphology operator="dilate" radius="1"></feMorphology><feComposite in2="SourceAlpha" operator="out"></feComposite></filter><path d="M300.83 268.81C300.83 283.48 288.02 295.39 272.23 295.39C256.44 295.39 243.63 283.48 243.63 268.81C243.63 254.15 256.44 242.24 272.23 242.24C288.02 242.24 300.83 254.15 300.83 268.81Z" id="a3DdDT5xX" fill="white" fill-opacity="1" filter="url(#shadow15675435)"></path></g><use xlink:href="#h8BN9rJqN" opacity="0.8" fill="#007700" fill-opacity="1"></use></g><g><g><filter id="shadow2295726" x="262.23" y="248.83" width="79.21" height="74.15"><feFlood></feFlood><feComposite in2="SourceAlpha" operator="in"></feComposite><feGaussianBlur stdDeviation="1"></feGaussianBlur><feOffset dx="2" dy="1" result="afterOffset"></feOffset><feFlood flood-color="#000000" flood-opacity="0.5"></feFlood><feComposite in2="afterOffset" operator="in"></feComposite><feMorphology operator="dilate" radius="1"></feMorphology><feComposite in2="SourceAlpha" operator="out"></feComposite></filter><path d="M329.44 285.4C329.44 300.07 316.62 311.98 300.83 311.98C285.05 311.98 272.23 300.07 272.23 285.4C272.23 270.73 285.05 258.83 300.83 258.83C316.62 258.83 329.44 270.73 329.44 285.4Z" id="hnUMjn9WG" fill="white" fill-opacity="1" filter="url(#shadow2295726)"></path></g><use xlink:href="#jtpR6BU1d" opacity="0.8" fill="#04da04" fill-opacity="1"></use></g></g></g></g></svg> 